<svg width="61" height="58" viewBox="0 0 61 58" fill="none" xmlns="http://www.w3.org/2000/svg">
<path d="M51.8906 18.9953L31.3062 54.1797L10.7923 18.9953L24.1863 18.9953L24.1863 9.91998L38.4262 9.91999L38.4262 18.9953L51.8906 18.9953Z" stroke="#5B8D4C" stroke-width="4" stroke-linecap="round" stroke-linejoin="round"/>
<circle cx="55.4649" cy="45.8402" r="4.74211" transform="rotate(-180 55.4649 45.8402)" fill="#5B8D4C"/>
<circle cx="7.50853" cy="39.1228" r="4.34693" transform="rotate(-180 7.50853 39.1228)" fill="#5B8D4C"/>
<circle cx="13.0424" cy="2.76624" r="2.76623" transform="rotate(-180 13.0424 2.76624)" fill="#5B8D4C"/>
<circle cx="50.5822" cy="2.3698" r="1.58186" transform="rotate(-180 50.5822 2.3698)" fill="#5B8D4C"/>
<ellipse cx="57.8373" cy="29.2421" rx="1.5807" ry="1.58186" transform="rotate(-180 57.8373 29.2421)" fill="#5B8D4C"/>
<circle cx="38.2748" cy="56.4193" r="1.5807" transform="rotate(-180 38.2748 56.4193)" fill="#5B8D4C"/>
<ellipse cx="6.32439" cy="52.1634" rx="1.58186" ry="1.5807" transform="rotate(-180 6.32439 52.1634)" fill="#5B8D4C"/>
<ellipse cx="1.5822" cy="8.69371" rx="1.58186" ry="1.5807" transform="rotate(-180 1.5822 8.69371)" fill="#5B8D4C"/>
</svg>
