<svg width="19" height="19" viewBox="0 0 19 19" fill="none" xmlns="http://www.w3.org/2000/svg">
<path d="M7.26004 17.5025C7.68195 17.5025 8.02398 17.1605 8.02398 16.7386C8.02398 16.3166 7.68195 15.9746 7.26004 15.9746C6.83812 15.9746 6.49609 16.3166 6.49609 16.7386C6.49609 17.1605 6.83812 17.5025 7.26004 17.5025Z" stroke="white" stroke-width="1.5" stroke-linecap="round" stroke-linejoin="round"/>
<path d="M15.6624 17.5025C16.0843 17.5025 16.4263 17.1605 16.4263 16.7386C16.4263 16.3166 16.0843 15.9746 15.6624 15.9746C15.2405 15.9746 14.8984 16.3166 14.8984 16.7386C14.8984 17.1605 15.2405 17.5025 15.6624 17.5025Z" stroke="white" stroke-width="1.5" stroke-linecap="round" stroke-linejoin="round"/>
<path d="M1.14844 1.45996H4.20421L6.25157 11.6891C6.32143 12.0409 6.51277 12.3568 6.79209 12.5817C7.07142 12.8065 7.42093 12.926 7.77945 12.9191H15.205C15.5635 12.926 15.913 12.8065 16.1923 12.5817C16.4717 12.3568 16.663 12.0409 16.7329 11.6891L17.9552 5.27967H4.96815" stroke="white" stroke-width="1.5" stroke-linecap="round" stroke-linejoin="round"/>
</svg>
