<svg width="19" height="17" viewBox="0 0 19 17" fill="none" xmlns="http://www.w3.org/2000/svg">
<path d="M12.4708 1.5874H1.01172V11.5186H12.4708V1.5874Z" stroke="white" stroke-width="1.5" stroke-linecap="round" stroke-linejoin="round"/>
<path d="M12.4688 5.40723H15.5245L17.8163 7.69905V11.5188H12.4688V5.40723Z" stroke="white" stroke-width="1.5" stroke-linecap="round" stroke-linejoin="round"/>
<path d="M4.44892 15.3383C5.5037 15.3383 6.35877 14.4832 6.35877 13.4284C6.35877 12.3736 5.5037 11.5186 4.44892 11.5186C3.39413 11.5186 2.53906 12.3736 2.53906 13.4284C2.53906 14.4832 3.39413 15.3383 4.44892 15.3383Z" stroke="white" stroke-width="1.5" stroke-linecap="round" stroke-linejoin="round"/>
<path d="M14.3786 15.3383C15.4334 15.3383 16.2885 14.4832 16.2885 13.4284C16.2885 12.3736 15.4334 11.5186 14.3786 11.5186C13.3238 11.5186 12.4688 12.3736 12.4688 13.4284C12.4688 14.4832 13.3238 15.3383 14.3786 15.3383Z" stroke="white" stroke-width="1.5" stroke-linecap="round" stroke-linejoin="round"/>
</svg>
