<svg width="9" height="52" viewBox="0 0 9 52" fill="none" xmlns="http://www.w3.org/2000/svg">
<path d="M1.336 0.599997H7.384L6.304 35.88H2.344L1.336 0.599997ZM4.36 51.36C3.304 51.36 2.392 51 1.624 50.28C0.904001 49.512 0.544001 48.624 0.544001 47.616C0.544001 46.56 0.904001 45.696 1.624 45.024C2.344 44.304 3.256 43.944 4.36 43.944C5.416 43.944 6.304 44.304 7.024 45.024C7.744 45.696 8.104 46.56 8.104 47.616C8.104 48.624 7.744 49.512 7.024 50.28C6.304 51 5.416 51.36 4.36 51.36Z" fill="#5B8D4C"/>
</svg>
