<svg width="133" height="25" viewBox="0 0 133 25" fill="none" xmlns="http://www.w3.org/2000/svg">
<path d="M80.3644 17.1752L73.079 3.43067C72.8537 2.90492 72.1778 2.60449 71.4267 2.60449C70.8258 2.60449 69.9997 2.75471 69.549 3.65599L61.8881 18.5271C61.4375 19.4284 61.4375 19.5035 61.4375 19.8039C61.4375 19.879 61.4375 19.879 61.4375 19.9541C61.4375 20.1043 61.5126 20.1795 61.6628 20.3297C61.9632 20.7052 62.5641 20.9305 63.165 20.9305C64.1413 20.9305 64.592 20.7052 65.2679 19.2782L66.019 17.8511C66.1692 17.6258 66.3945 17.4005 66.695 17.4005H75.858C76.1584 17.4005 76.5339 17.6258 76.6842 18.0014L77.5103 19.5035C78.1863 20.8554 78.5618 21.0056 79.4631 21.0056C80.2142 21.0056 80.8901 20.6301 81.1906 20.1795C81.6412 19.7288 80.9652 18.1516 80.3644 17.1752ZM74.9567 14.922C74.8065 15.1473 74.5812 15.3726 74.2807 15.3726H68.7228C68.4224 15.3726 68.0469 15.1473 67.8967 14.7718C67.8216 14.6967 67.8216 14.6216 67.8216 14.4713C67.7465 14.246 67.8216 14.0207 67.8967 13.7954L70.6005 8.01217C70.7507 7.71175 70.976 7.56153 71.2765 7.56153C71.652 7.56153 71.9524 7.78685 72.1778 8.16238L75.0318 13.9456C75.0318 14.3211 75.1069 14.6967 74.9567 14.922Z" fill="#006343"/>
<path d="M96.5108 4.9324C96.4357 3.73069 93.5065 2.6792 90.1267 2.6792C84.1182 2.6792 79.9122 6.50964 80.1375 11.7671C80.3629 17.0246 84.8693 20.855 90.8778 20.855C94.0323 20.855 97.4121 19.9537 97.337 18.4516C97.337 18.2263 96.8863 17.4001 95.7597 17.4001C95.3091 17.4001 94.8584 17.5503 94.3327 17.7756C93.5065 18.0761 92.455 18.5267 90.8027 18.5267C86.2963 18.5267 84.1182 15.222 83.968 11.8422C83.8178 8.46241 85.6954 5.00751 90.2018 5.00751C91.8542 5.00751 92.8306 5.38304 93.6567 5.60836C94.1825 5.75857 94.6331 5.90879 95.0838 5.90879C95.9851 5.98389 96.5108 5.45815 96.5108 4.9324Z" fill="#006343"/>
<path d="M64.9695 8.46277C64.9695 6.50999 63.5425 4.55722 61.2893 3.35552C59.712 2.52934 57.8344 2.15381 54.755 2.15381H50.6241H49.9482C48.8216 2.15381 48.2207 2.30402 47.695 2.82977C47.4696 3.05509 47.3945 3.1302 47.3945 4.3319V18.3769C47.3945 19.4283 47.4696 19.5034 47.6199 19.8039C47.8452 20.1794 48.6713 20.4798 49.4975 20.4798C50.3237 20.4798 51.0748 20.1043 51.3752 19.7288C51.6005 19.4283 51.6005 19.4283 51.6005 18.3769V15.4477C51.6005 15.0722 51.8258 14.7717 52.1263 14.5464C52.2765 14.4713 52.4267 14.3962 52.652 14.3962C52.652 14.3962 53.1026 14.3962 53.7786 14.3962C54.079 14.3962 54.3795 14.3962 54.6799 14.3962C60.6884 14.1709 63.242 11.8426 63.242 11.8426C64.2935 11.0164 64.9695 9.8898 64.9695 8.46277ZM52.4267 12.5185C51.9009 12.5185 51.4503 12.0679 51.4503 11.5421V5.4585C51.4503 4.93276 51.9009 4.48212 52.4267 4.48212H54.6048C56.5575 4.48212 57.0833 4.48212 57.9095 4.78254C59.7871 5.3834 60.9888 6.88553 60.9888 8.46277C60.9888 9.8898 60.0876 11.1666 58.6605 11.9177C57.6841 12.3683 56.7829 12.5185 54.6799 12.5185H52.4267Z" fill="#006343"/>
<path d="M43.8651 24.536C42.8887 24.536 42.1376 23.6348 42.1376 22.5082V22.1326C42.1376 21.006 41.3115 20.1047 40.3351 20.1047H30.7965C29.8201 20.1047 28.994 21.006 28.994 22.1326V22.5082C28.994 23.6348 28.1678 24.536 27.2665 24.536C26.2901 24.536 25.5391 23.6348 25.5391 22.5082V19.5039C25.5391 18.3773 25.9897 17.476 26.5154 17.476C27.0412 17.476 27.7923 16.6498 28.2429 15.6735C28.2429 15.6735 30.1206 11.0919 30.1206 6.21001V4.55767C30.1206 3.43107 30.9467 2.52979 31.9231 2.52979H41.6119C42.5883 2.52979 43.4144 3.43107 43.4144 4.55767V15.5232C43.4144 16.6498 43.9402 17.5511 44.541 17.5511C45.1419 17.5511 45.6676 18.4524 45.6676 19.579V22.5833C45.5925 23.6348 44.8415 24.536 43.8651 24.536ZM39.8093 7.1864C39.8093 6.0598 38.9832 5.15852 38.0068 5.15852H35.4531C34.4768 5.15852 33.5755 5.38384 33.5755 5.68427C33.5755 5.98469 33.5004 7.11129 33.3502 8.23789C33.3502 8.23789 32.5991 14.6971 31.2472 17.476H38.0068C38.9832 17.476 39.8093 16.5747 39.8093 15.4481V7.1864Z" fill="#006343"/>
<path d="M0 2.37895C0 1.25235 0.90128 0.351074 2.02788 0.351074H15.6222C16.7488 0.351074 17.6501 1.02703 17.6501 1.85321C17.6501 2.67938 16.7488 3.35534 15.6222 3.35534H6.45917C5.33257 3.35534 4.43129 4.25662 4.43129 5.38322V18.4518C4.43129 19.5784 3.53001 20.4797 2.40341 20.4797H2.02788C0.90128 20.4797 0 19.5784 0 18.4518V2.37895Z" fill="#006343"/>
<path d="M130.463 17.7754L123.853 10.415C123.628 10.1896 123.628 9.81411 123.928 9.58879L129.862 4.85707L130.763 4.106C131.589 3.43004 131.439 2.9043 130.463 2.9043H128.134C127.834 2.9043 127.308 3.05451 127.083 3.27983L118.07 10.5652C117.845 10.7905 117.62 10.6403 117.62 10.3399V9.36347V4.55664C117.62 3.65536 116.868 2.9794 116.042 2.9794H115.366C114.465 2.9794 113.789 3.73047 113.789 4.55664V18.9771C113.789 19.8784 114.54 20.5544 115.366 20.5544H116.042C116.944 20.5544 117.62 19.8033 117.62 18.9771V16.2733V15.2969C117.62 14.9965 117.845 14.5458 118.07 14.3205L120.323 12.5931C120.549 12.3677 120.999 12.4428 121.15 12.6682L127.684 20.1788C127.909 20.4042 128.36 20.6295 128.66 20.6295H130.388H130.913C132.04 20.6295 132.34 19.9535 131.589 19.1273L130.463 17.7754Z" fill="#006343"/>
<path d="M22.6832 2.15363C22.6832 3.13002 21.8571 3.95619 20.8807 3.95619C19.9043 3.95619 19.0781 3.13002 19.0781 2.15363C19.0781 1.17725 19.9043 0.351074 20.8807 0.351074C21.8571 0.351074 22.6832 1.17725 22.6832 2.15363Z" fill="#006343"/>
<path d="M22.8274 19.2779V6.13424C22.8274 5.15785 21.7759 4.85742 20.8746 4.85742C19.9734 4.85742 18.9219 5.23296 18.9219 6.13424V19.2779C18.9219 20.2543 19.9734 20.5547 20.8746 20.5547C21.7759 20.6298 22.8274 20.2543 22.8274 19.2779Z" fill="#006343"/>
<path d="M102.67 5.98442C102.67 5.53378 102.97 5.23336 103.346 5.23336H109.73C111.082 5.23336 111.683 4.6325 111.683 4.18186C111.683 3.65612 111.007 3.13037 109.73 3.13037H100.717C99.891 3.13037 98.5391 3.35569 98.5391 4.70761L98.6142 19.2783C98.6142 19.9543 99.5154 20.5551 100.792 20.5551H110.181C111.533 20.5551 112.133 19.9543 112.133 19.5036C112.133 18.9779 111.457 18.4521 110.181 18.4521H103.421C103.045 18.4521 102.745 18.1517 102.745 17.7011V13.6453C102.745 13.1947 103.045 12.8942 103.421 12.8942H109.43C110.781 12.8942 111.457 12.2183 111.457 11.8427C111.457 11.317 110.781 10.7913 109.43 10.7913H103.421C103.045 10.7913 102.745 10.4908 102.745 10.0402L102.67 5.98442Z" fill="#006343"/>
</svg>
