<svg width="144" height="18" viewBox="0 0 144 18" fill="none" xmlns="http://www.w3.org/2000/svg">
<path d="M6.60938 6.92969C6.60938 7.79688 6.3125 8.46484 5.71875 8.93359C5.12891 9.39844 4.2832 9.63086 3.18164 9.63086H2.17383V13H1.17773V4.43359H3.39844C5.53906 4.43359 6.60938 5.26562 6.60938 6.92969ZM2.17383 8.77539H3.07031C3.95312 8.77539 4.5918 8.63281 4.98633 8.34766C5.38086 8.0625 5.57812 7.60547 5.57812 6.97656C5.57812 6.41016 5.39258 5.98828 5.02148 5.71094C4.65039 5.43359 4.07227 5.29492 3.28711 5.29492H2.17383V8.77539ZM13.8047 9.7832C13.8047 10.8301 13.541 11.6484 13.0137 12.2383C12.4863 12.8242 11.7578 13.1172 10.8281 13.1172C10.2539 13.1172 9.74414 12.9824 9.29883 12.7129C8.85352 12.4434 8.50977 12.0566 8.26758 11.5527C8.02539 11.0488 7.9043 10.459 7.9043 9.7832C7.9043 8.73633 8.16602 7.92188 8.68945 7.33984C9.21289 6.75391 9.93945 6.46094 10.8691 6.46094C11.7676 6.46094 12.4805 6.75977 13.0078 7.35742C13.5391 7.95508 13.8047 8.76367 13.8047 9.7832ZM8.91211 9.7832C8.91211 10.6035 9.07617 11.2285 9.4043 11.6582C9.73242 12.0879 10.2148 12.3027 10.8516 12.3027C11.4883 12.3027 11.9707 12.0898 12.2988 11.6641C12.6309 11.2344 12.7969 10.6074 12.7969 9.7832C12.7969 8.9668 12.6309 8.34766 12.2988 7.92578C11.9707 7.5 11.4844 7.28711 10.8398 7.28711C10.2031 7.28711 9.72266 7.49609 9.39844 7.91406C9.07422 8.33203 8.91211 8.95508 8.91211 9.7832ZM16.7402 9.24414C17.9551 9.24414 18.5625 8.9082 18.5625 8.23633C18.5625 7.60352 18.0703 7.28711 17.0859 7.28711C16.7852 7.28711 16.5117 7.31445 16.2656 7.36914C16.0195 7.42383 15.6973 7.5332 15.2988 7.69727L14.9531 6.90625C15.6172 6.60938 16.3418 6.46094 17.127 6.46094C17.8652 6.46094 18.4473 6.61328 18.873 6.91797C19.2988 7.21875 19.5117 7.63086 19.5117 8.1543C19.5117 8.87305 19.1113 9.34375 18.3105 9.56641V9.61328C18.8027 9.75781 19.1621 9.96484 19.3887 10.2344C19.6152 10.5 19.7285 10.834 19.7285 11.2363C19.7285 11.8301 19.4883 12.293 19.0078 12.625C18.5312 12.9531 17.8711 13.1172 17.0273 13.1172C16.1016 13.1172 15.3867 12.9785 14.8828 12.7012V11.8105C15.5977 12.1465 16.3203 12.3145 17.0508 12.3145C17.6133 12.3145 18.0371 12.2188 18.3223 12.0273C18.6113 11.832 18.7559 11.5527 18.7559 11.1895C18.7559 10.4434 18.1484 10.0703 16.9336 10.0703H16.043V9.24414H16.7402ZM24.3047 13.1172C23.8867 13.1172 23.5039 13.041 23.1562 12.8887C22.8125 12.7324 22.5234 12.4941 22.2891 12.1738H22.2188C22.2656 12.5488 22.2891 12.9043 22.2891 13.2402V15.8828H21.3164V6.57812H22.1074L22.2422 7.45703H22.2891C22.5391 7.10547 22.8301 6.85156 23.1621 6.69531C23.4941 6.53906 23.875 6.46094 24.3047 6.46094C25.1562 6.46094 25.8125 6.75195 26.2734 7.33398C26.7383 7.91602 26.9707 8.73242 26.9707 9.7832C26.9707 10.8379 26.7344 11.6582 26.2617 12.2441C25.793 12.8262 25.1406 13.1172 24.3047 13.1172ZM24.1641 7.28711C23.5078 7.28711 23.0332 7.46875 22.7402 7.83203C22.4473 8.19531 22.2969 8.77344 22.2891 9.56641V9.7832C22.2891 10.6855 22.4395 11.332 22.7402 11.7227C23.041 12.1094 23.5234 12.3027 24.1875 12.3027C24.7422 12.3027 25.1758 12.0781 25.4883 11.6289C25.8047 11.1797 25.9629 10.5605 25.9629 9.77148C25.9629 8.9707 25.8047 8.35742 25.4883 7.93164C25.1758 7.50195 24.7344 7.28711 24.1641 7.28711ZM34.2188 9.7832C34.2188 10.8301 33.9551 11.6484 33.4277 12.2383C32.9004 12.8242 32.1719 13.1172 31.2422 13.1172C30.668 13.1172 30.1582 12.9824 29.7129 12.7129C29.2676 12.4434 28.9238 12.0566 28.6816 11.5527C28.4395 11.0488 28.3184 10.459 28.3184 9.7832C28.3184 8.73633 28.5801 7.92188 29.1035 7.33984C29.627 6.75391 30.3535 6.46094 31.2832 6.46094C32.1816 6.46094 32.8945 6.75977 33.4219 7.35742C33.9531 7.95508 34.2188 8.76367 34.2188 9.7832ZM29.3262 9.7832C29.3262 10.6035 29.4902 11.2285 29.8184 11.6582C30.1465 12.0879 30.6289 12.3027 31.2656 12.3027C31.9023 12.3027 32.3848 12.0898 32.7129 11.6641C33.0449 11.2344 33.2109 10.6074 33.2109 9.7832C33.2109 8.9668 33.0449 8.34766 32.7129 7.92578C32.3848 7.5 31.8984 7.28711 31.2539 7.28711C30.6172 7.28711 30.1367 7.49609 29.8125 7.91406C29.4883 8.33203 29.3262 8.95508 29.3262 9.7832ZM35.5957 9.15039C35.5957 7.74414 35.8027 6.64844 36.2168 5.86328C36.6309 5.07422 37.2871 4.58203 38.1855 4.38672C39.3027 4.14844 40.2871 3.95508 41.1387 3.80664L41.3203 4.66211C39.9648 4.88867 38.9961 5.06836 38.4141 5.20117C37.8477 5.33008 37.4219 5.63477 37.1367 6.11523C36.8555 6.5957 36.7012 7.25 36.6738 8.07812H36.7441C36.9863 7.75 37.2988 7.49219 37.6816 7.30469C38.0645 7.11719 38.4648 7.02344 38.8828 7.02344C39.6719 7.02344 40.2871 7.2793 40.7285 7.79102C41.1699 8.30273 41.3906 9.01172 41.3906 9.91797C41.3906 10.9219 41.1348 11.707 40.623 12.2734C40.1113 12.8359 39.3984 13.1172 38.4844 13.1172C37.582 13.1172 36.875 12.7715 36.3633 12.0801C35.8516 11.3887 35.5957 10.4121 35.5957 9.15039ZM38.5723 12.3027C39.7637 12.3027 40.3594 11.543 40.3594 10.0234C40.3594 8.57422 39.8184 7.84961 38.7363 7.84961C38.4395 7.84961 38.1523 7.91211 37.875 8.03711C37.6016 8.1582 37.3496 8.32031 37.1191 8.52344C36.8926 8.72656 36.7168 8.93555 36.5918 9.15039C36.5918 10.1777 36.7539 10.9609 37.0781 11.5C37.4023 12.0352 37.9004 12.3027 38.5723 12.3027ZM46.834 6.57812H47.9004L45.1289 9.67773L48.1289 13H46.9922L44.0625 9.74805V13H43.0898V6.57812H44.0625V9.70117L46.834 6.57812ZM53.2734 13L53.0801 12.0859H53.0332C52.7129 12.4883 52.3926 12.7617 52.0723 12.9062C51.7559 13.0469 51.3594 13.1172 50.8828 13.1172C50.2461 13.1172 49.7461 12.9531 49.3828 12.625C49.0234 12.2969 48.8438 11.8301 48.8438 11.2246C48.8438 9.92773 49.8809 9.24805 51.9551 9.18555L53.0449 9.15039V8.75195C53.0449 8.24805 52.9355 7.87695 52.7168 7.63867C52.502 7.39648 52.1562 7.27539 51.6797 7.27539C51.1445 7.27539 50.5391 7.43945 49.8633 7.76758L49.5645 7.02344C49.8809 6.85156 50.2266 6.7168 50.6016 6.61914C50.9805 6.52148 51.3594 6.47266 51.7383 6.47266C52.5039 6.47266 53.0703 6.64258 53.4375 6.98242C53.8086 7.32227 53.9941 7.86719 53.9941 8.61719V13H53.2734ZM51.0762 12.3145C51.6816 12.3145 52.1562 12.1484 52.5 11.8164C52.8477 11.4844 53.0215 11.0195 53.0215 10.4219V9.8418L52.0488 9.88281C51.2754 9.91016 50.7168 10.0312 50.373 10.2461C50.0332 10.457 49.8633 10.7871 49.8633 11.2363C49.8633 11.5879 49.9688 11.8555 50.1797 12.0391C50.3945 12.2227 50.6934 12.3145 51.0762 12.3145Z" fill="#7A7A7A"/>
<path d="M73.3576 0.201758V7.51664C73.3576 7.69838 73.5774 7.78743 73.7006 7.65476L75.9894 5.17406C76.0269 5.13408 76.0787 5.11045 76.1341 5.11045H79.427C79.6039 5.11045 79.6914 5.33035 79.5646 5.45575L76.2949 8.70338C76.2181 8.77971 76.2145 8.90511 76.2896 8.98507L79.9005 12.867C80.0202 12.996 79.9308 13.2068 79.7575 13.2068H76.3503C76.2931 13.2068 76.2395 13.1832 76.202 13.1396L73.7042 10.2863C73.5827 10.1482 73.3594 10.2354 73.3594 10.4208V13.0051C73.3594 13.1159 73.27 13.2068 73.1611 13.2068H70.7061C70.5971 13.2068 70.5078 13.1159 70.5078 13.0051V0.201758C70.5096 0.0908986 70.5971 3.05176e-05 70.7061 3.05176e-05H73.1593C73.27 3.05176e-05 73.3576 0.0908986 73.3576 0.201758Z" fill="#7A7A7A"/>
<path d="M80.96 5.10883H83.4132C83.5222 5.10883 83.6115 5.19969 83.6115 5.31055V5.78852C83.6115 5.97571 83.8384 6.05931 83.9581 5.91937C84.1904 5.64858 84.4584 5.44867 84.7335 5.30874C85.1605 5.07248 85.6769 4.98343 86.2111 4.98343C86.2683 4.98343 86.3612 4.99615 86.5935 5.00887C86.6989 5.01614 86.7811 5.10337 86.7811 5.2106V7.44414C86.7811 7.58589 86.6435 7.68221 86.5149 7.63314C86.304 7.55136 85.9878 7.46595 85.5536 7.46595C85.1802 7.46595 84.6638 7.52047 84.2529 7.9003C83.6472 8.46186 83.6115 9.31239 83.6115 9.74855V13.0071C83.6115 13.1179 83.5222 13.2088 83.4132 13.2088H80.96C80.8511 13.2088 80.7617 13.1179 80.7617 13.0071V5.30874C80.7635 5.19788 80.8511 5.10883 80.96 5.10883Z" fill="#7A7A7A"/>
<path d="M90.8966 0.201758V13.0033C90.8966 13.1141 90.8073 13.205 90.6983 13.205H88.2452C88.1362 13.205 88.0469 13.1141 88.0469 13.0033V0.201758C88.0469 0.0908987 88.1362 3.05176e-05 88.2452 3.05176e-05H90.6983C90.8073 3.05176e-05 90.8966 0.0908987 90.8966 0.201758Z" fill="#7A7A7A"/>
<path d="M100.849 12.1366C99.7982 13.187 98.5689 13.476 97.2879 13.476C96.1301 13.476 94.8473 13.2397 93.7449 12.1366C92.873 11.2679 92.5156 10.2338 92.5156 9.147C92.5156 7.69856 93.157 6.75535 93.7449 6.17561C94.4042 5.52318 95.5619 4.83621 97.2879 4.83621C99.0514 4.83621 100.191 5.54317 100.849 6.17561C101.437 6.75535 102.078 7.69674 102.078 9.147C102.078 10.2338 101.722 11.266 100.849 12.1366ZM96.0229 7.82577C95.6674 8.16926 95.4708 8.6763 95.4708 9.14882C95.4708 9.63769 95.7031 10.1084 96.0229 10.4355C96.3606 10.779 96.8233 10.9789 97.3058 10.9789C97.7685 10.9789 98.2313 10.779 98.5707 10.4355C98.9263 10.092 99.1228 9.62133 99.1228 9.14882C99.1228 8.71447 98.9263 8.18925 98.5707 7.82577C98.2509 7.51864 97.7524 7.30056 97.3058 7.30056C96.843 7.30056 96.3445 7.51682 96.0229 7.82577Z" fill="#7A7A7A"/>
<path d="M112.478 5.10862C112.587 5.10862 112.677 5.19948 112.677 5.31034V12.6979C112.677 13.9119 112.57 15.0169 111.59 16.0491C110.576 17.0996 109.239 17.354 108.083 17.354C106.606 17.354 105.376 16.9742 104.361 15.9237C103.956 15.4948 103.672 15.066 103.536 14.488C103.506 14.3608 103.602 14.239 103.729 14.239H106.522C106.6 14.239 106.67 14.2863 106.702 14.3608C106.84 14.677 107.159 15.0732 107.992 15.0732C108.437 15.0732 108.882 14.9824 109.257 14.6207C109.738 14.1682 109.827 13.5884 109.827 13.1177V12.7706C109.827 12.5998 109.63 12.5053 109.504 12.6161C108.732 13.2868 108.005 13.3703 107.442 13.3703C105.982 13.3703 105.039 12.7906 104.503 12.229C103.79 11.4857 103.398 10.3808 103.398 9.27583C103.398 8.00731 103.879 6.84783 104.574 6.10635C105.341 5.29217 106.409 4.87418 107.46 4.87418C107.896 4.87418 108.737 4.95777 109.502 5.61748C109.63 5.72834 109.829 5.63747 109.829 5.46664V5.31216C109.829 5.2013 109.918 5.11043 110.027 5.11043H112.478V5.10862ZM106.87 7.82557C106.461 8.25992 106.318 8.7488 106.318 9.13044C106.318 9.60114 106.514 10.09 106.87 10.4535C107.243 10.8333 107.724 10.9787 108.153 10.9787C108.598 10.9787 109.096 10.7788 109.436 10.4353C109.791 10.0737 109.97 9.54843 109.97 9.13044C109.97 8.71427 109.738 8.1527 109.4 7.8074C109.08 7.48209 108.617 7.28218 108.135 7.28218C107.654 7.28218 107.245 7.44393 106.87 7.82557Z" fill="#7A7A7A"/>
<path d="M114.907 0.513978C116.633 -0.740002 118.494 1.15551 117.263 2.91108C117.249 2.93107 117.231 2.95106 117.212 2.96378C115.486 4.21776 113.624 2.32225 114.855 0.566682C114.868 0.546691 114.885 0.528517 114.907 0.513978ZM117.483 5.30818V13.0029C117.483 13.1138 117.394 13.2046 117.285 13.2046H114.832C114.723 13.2046 114.633 13.1138 114.633 13.0029V5.30818C114.633 5.19732 114.723 5.10645 114.832 5.10645H117.285C117.394 5.10827 117.483 5.19732 117.483 5.30818Z" fill="#7A7A7A"/>
<path d="M122.276 0.201758V7.51664C122.276 7.69838 122.496 7.78743 122.619 7.65476L124.908 5.17406C124.945 5.13408 124.997 5.11045 125.052 5.11045H128.345C128.522 5.11045 128.61 5.33035 128.483 5.45575L125.213 8.70338C125.136 8.77971 125.133 8.90511 125.208 8.98507L128.819 12.867C128.939 12.996 128.849 13.2068 128.676 13.2068H125.27C125.213 13.2068 125.16 13.1832 125.122 13.1396L122.624 10.2863C122.503 10.1482 122.279 10.2354 122.279 10.4208V13.0051C122.279 13.1159 122.19 13.2068 122.081 13.2068H119.628C119.519 13.2068 119.43 13.1159 119.43 13.0051V0.201758C119.43 0.0908986 119.519 3.05176e-05 119.628 3.05176e-05H122.081C122.187 3.05176e-05 122.276 0.0908986 122.276 0.201758Z" fill="#7A7A7A"/>
<path d="M135.831 5.10854H138.284C138.393 5.10854 138.482 5.19941 138.482 5.31027V13.005C138.482 13.1158 138.393 13.2067 138.284 13.2067H135.831C135.722 13.2067 135.632 13.1158 135.632 13.005V12.8487C135.632 12.6706 135.425 12.5834 135.296 12.7051C134.655 13.3121 133.817 13.4793 133.156 13.4793C132.302 13.4793 131.251 13.2249 130.288 12.1926C129.522 11.3603 129.148 10.4352 129.148 9.22305C129.148 7.70192 129.736 6.63331 130.378 5.98087C131.055 5.29209 132.105 4.83957 133.245 4.83957C134.214 4.83957 134.887 5.22303 135.305 5.57378C135.436 5.68283 135.632 5.59196 135.632 5.42113V5.3139C135.632 5.19759 135.722 5.10854 135.831 5.10854ZM132.641 7.8255C132.25 8.20533 132.071 8.73054 132.071 9.14854C132.071 9.61923 132.268 10.1263 132.624 10.4716C132.926 10.7624 133.424 11.015 133.906 11.015C134.369 11.015 134.832 10.8151 135.189 10.4534C135.439 10.199 135.723 9.80097 135.723 9.14854C135.723 8.76871 135.616 8.26166 135.171 7.8255C134.903 7.57107 134.494 7.30028 133.889 7.30028C133.531 7.30028 133.051 7.42568 132.641 7.8255Z" fill="#7A7A7A"/>
<path d="M140.865 12.9869C140.632 12.7506 140.312 12.3162 140.312 11.6638C140.312 11.0114 140.632 10.577 140.865 10.3408C141.292 9.90642 141.772 9.77921 142.165 9.77921C142.61 9.77921 143.091 9.96094 143.482 10.3589C143.784 10.6661 143.998 11.0659 143.998 11.6638C143.998 12.2617 143.784 12.6597 143.464 12.9869C143.091 13.3667 142.628 13.5484 142.164 13.5484C141.774 13.5484 141.293 13.4212 140.865 12.9869Z" fill="#7A7A7A"/>
<path d="M68.3492 5.10861H65.8961C65.7871 5.10861 65.6978 5.19948 65.6978 5.31034V9.43575C65.6978 9.76106 65.637 10.339 65.2636 10.7097C64.992 10.9787 64.6115 11.1223 64.2738 11.1223C63.9361 11.1223 63.5555 10.9787 63.2839 10.7097C62.9105 10.339 62.8498 9.76106 62.8498 9.43575V5.31034C62.8498 5.19948 62.7604 5.10861 62.6515 5.10861H60.1983C60.0893 5.10861 60 5.19766 60 5.30852V8.94506C60 9.72289 60.1143 11.3422 60.9452 12.1872C61.8707 13.1995 63.1017 13.4648 64.2738 13.4757C65.4458 13.4648 66.6787 13.1995 67.6024 12.1872C68.4332 11.3422 68.5475 9.72289 68.5475 8.94506V5.30852C68.5475 5.19766 68.4582 5.10861 68.3492 5.10861Z" fill="#7A7A7A"/>
</svg>
